<svg xmlns="http://www.w3.org/2000/svg" width="283" height="216" fill="none"><g filter="url(#a)"><path stroke="#E54B4B" stroke-width="2" d="M254.416 69.792h-27.83l-7.735-19.609C210.902 30.023 191.931 17 170.516 17h-59.035c-21.41 0-40.386 13.023-48.34 33.183l-7.734 19.609H27.58c-3.63 0-6.294 3.46-5.41 7.028l2.788 11.312c.619 2.517 2.85 4.285 5.411 4.285h9.33c-6.243 5.529-10.264 13.565-10.264 22.625v22.625c0 7.598 2.863 14.456 7.437 19.764v25.486c0 8.328 6.662 15.083 14.875 15.083h14.875c8.214 0 14.875-6.755 14.875-15.083v-15.084H200.5v15.084c0 8.328 6.661 15.083 14.875 15.083h14.875c8.213 0 14.875-6.755 14.875-15.083v-25.486c4.574-5.303 7.437-12.161 7.437-19.764v-22.625c0-9.06-4.021-17.096-10.259-22.625h9.329c2.562 0 4.793-1.768 5.411-4.285l2.789-11.312c.879-3.569-1.785-7.028-5.415-7.028ZM90.763 61.387c3.388-8.588 11.593-14.22 20.718-14.22h59.035c9.125 0 17.329 5.632 20.718 14.22l9.265 23.488h-119l9.264-23.488Zm-24.14 76.185c-8.925 0-14.875-6.014-14.875-15.036 0-9.022 5.95-15.036 14.875-15.036s22.313 13.533 22.313 22.554c0 9.022-13.388 7.518-22.313 7.518Zm148.751 0c-8.925 0-22.313 1.504-22.313-7.518 0-9.021 13.388-22.554 22.313-22.554 8.925 0 14.875 6.014 14.875 15.036 0 9.022-5.95 15.036-14.875 15.036Z" shape-rendering="crispEdges"/></g><defs><filter id="a" width="270" height="213" x="6" y="1" color-interpolation-filters="sRGB" filterUnits="userSpaceOnUse"><feFlood flood-opacity="0" result="BackgroundImageFix"/><feColorMatrix in="SourceAlpha" result="hardAlpha" values="0 0 0 0 0 0 0 0 0 0 0 0 0 0 0 0 0 0 127 0"/><feOffset/><feGaussianBlur stdDeviation="7.5"/><feComposite in2="hardAlpha" operator="out"/><feColorMatrix values="0 0 0 0 0.898039 0 0 0 0 0.294118 0 0 0 0 0.294118 0 0 0 1 0"/><feBlend in2="BackgroundImageFix" result="effect1_dropShadow_107_41"/><feBlend in="SourceGraphic" in2="effect1_dropShadow_107_41" result="shape"/></filter></defs></svg>