<svg xmlns="http://www.w3.org/2000/svg" width="58" height="44" fill="none"><path fill="#FFA987" d="M56.64 12.833h-6.783l-1.885-4.766C46.035 3.166 41.412 0 36.193 0H21.806c-5.218 0-9.842 3.166-11.78 8.067l-1.885 4.766h-6.78c-.886 0-1.535.841-1.32 1.709l.68 2.75c.15.612.695 1.041 1.319 1.041h2.273c-1.521 1.344-2.5 3.298-2.5 5.5v5.5c0 1.847.697 3.515 1.812 4.805v6.195C3.625 42.358 5.248 44 7.25 44h3.625c2.001 0 3.625-1.642 3.625-3.667v-3.666h29v3.666c0 2.025 1.623 3.667 3.625 3.667h3.625c2.001 0 3.625-1.642 3.625-3.667v-6.195c1.114-1.29 1.812-2.956 1.812-4.805v-5.5c0-2.202-.98-4.156-2.5-5.5h2.274c.624 0 1.168-.43 1.318-1.041l.68-2.75c.214-.868-.435-1.709-1.32-1.709ZM16.756 10.79a5.439 5.439 0 0 1 5.05-3.457h14.386a5.439 5.439 0 0 1 5.049 3.457L43.5 16.5h-29l2.257-5.71Zm-5.882 18.52c-2.175 0-3.625-1.462-3.625-3.655C7.25 23.462 8.7 22 10.875 22s5.437 3.29 5.437 5.483c0 2.193-3.262 1.827-5.437 1.827Zm36.25 0c-2.175 0-5.438.366-5.438-1.827S44.95 22 47.125 22s3.625 1.462 3.625 3.655c0 2.193-1.45 3.655-3.625 3.655Z"/></svg>