<svg xmlns="http://www.w3.org/2000/svg" width="285" height="230" fill="none"><g filter="url(#a)"><path stroke="#E54B4B" stroke-width="2" d="M269 97.322v7.072c0 5.858-4.72 10.607-10.542 10.607h-3.514l-11.469 80.785C241.991 206.237 233.096 214 222.603 214H62.396c-10.492 0-19.387-7.763-20.871-18.214l-11.47-80.785h-3.513c-5.822 0-10.542-4.749-10.542-10.607v-7.072c0-5.858 4.72-10.607 10.542-10.607H56.12l46.902-64.89c4.566-6.316 13.356-7.713 19.634-3.119 6.278 4.595 7.666 13.44 3.1 19.757L90.88 86.715h103.24l-34.876-48.253c-4.566-6.316-3.178-15.162 3.1-19.756 6.277-4.594 15.069-3.197 19.635 3.12l46.901 64.89h29.578c5.822 0 10.542 4.748 10.542 10.606Zm-115.958 77.785v-49.499c0-5.858-4.72-10.607-10.542-10.607s-10.542 4.749-10.542 10.607v49.499c0 5.859 4.72 10.607 10.542 10.607s10.542-4.748 10.542-10.607Zm49.194 0v-49.499c0-5.858-4.719-10.607-10.542-10.607-5.822 0-10.541 4.749-10.541 10.607v49.499c0 5.859 4.719 10.607 10.541 10.607 5.823 0 10.542-4.748 10.542-10.607Zm-98.389 0v-49.499c0-5.858-4.72-10.607-10.541-10.607-5.822 0-10.542 4.749-10.542 10.607v49.499c0 5.859 4.72 10.607 10.542 10.607s10.541-4.748 10.541-10.607Z" shape-rendering="crispEdges"/></g><defs><filter id="a" width="285" height="230" x="0" y="0" color-interpolation-filters="sRGB" filterUnits="userSpaceOnUse"><feFlood flood-opacity="0" result="BackgroundImageFix"/><feColorMatrix in="SourceAlpha" result="hardAlpha" values="0 0 0 0 0 0 0 0 0 0 0 0 0 0 0 0 0 0 127 0"/><feOffset/><feGaussianBlur stdDeviation="7.5"/><feComposite in2="hardAlpha" operator="out"/><feColorMatrix values="0 0 0 0 0.898039 0 0 0 0 0.294118 0 0 0 0 0.294118 0 0 0 1 0"/><feBlend in2="BackgroundImageFix" result="effect1_dropShadow_107_56"/><feColorMatrix in="SourceAlpha" result="hardAlpha" values="0 0 0 0 0 0 0 0 0 0 0 0 0 0 0 0 0 0 127 0"/><feOffset dy="4"/><feGaussianBlur stdDeviation="2"/><feComposite in2="hardAlpha" operator="out"/><feColorMatrix values="0 0 0 0 0 0 0 0 0 0 0 0 0 0 0 0 0 0 0.25 0"/><feBlend in2="effect1_dropShadow_107_56" result="effect2_dropShadow_107_56"/><feBlend in="SourceGraphic" in2="effect2_dropShadow_107_56" result="shape"/></filter></defs></svg>