<svg xmlns="http://www.w3.org/2000/svg" width="59" height="46" fill="none"><path fill="#FFA987" d="M59 18.893v1.643C59 21.896 57.9 23 56.542 23h-.82l-2.675 18.768A4.92 4.92 0 0 1 48.18 46H10.82a4.92 4.92 0 0 1-4.868-4.232L3.278 23h-.82A2.461 2.461 0 0 1 0 20.536v-1.643c0-1.361 1.1-2.464 2.458-2.464h6.898L20.294 1.353A3.273 3.273 0 0 1 24.872.63a3.29 3.29 0 0 1 .723 4.59l-8.133 11.21h24.076l-8.133-11.21a3.29 3.29 0 0 1 .723-4.59 3.273 3.273 0 0 1 4.578.724L49.645 16.43h6.898A2.461 2.461 0 0 1 59 18.893ZM31.958 36.964v-11.5c0-1.36-1.1-2.464-2.458-2.464a2.461 2.461 0 0 0-2.458 2.464v11.5c0 1.361 1.1 2.465 2.458 2.465a2.461 2.461 0 0 0 2.458-2.465Zm11.473 0v-11.5c0-1.36-1.101-2.464-2.459-2.464a2.461 2.461 0 0 0-2.458 2.464v11.5c0 1.361 1.1 2.465 2.458 2.465a2.461 2.461 0 0 0 2.459-2.465Zm-22.945 0v-11.5c0-1.36-1.1-2.464-2.458-2.464a2.461 2.461 0 0 0-2.459 2.464v11.5c0 1.361 1.101 2.465 2.459 2.465a2.461 2.461 0 0 0 2.458-2.465Z"/></svg>