<svg fill="none" height="74" width="73" xmlns="http://www.w3.org/2000/svg"><path d="m36.663 18.242c-10.29 0-18.589 8.3-18.589 18.592s8.3 18.593 18.589 18.593 18.588-8.301 18.588-18.593c0-10.291-8.299-18.592-18.588-18.592zm0 30.68c-6.65 0-12.085-5.42-12.085-12.088 0-6.666 5.42-12.087 12.085-12.087s12.085 5.42 12.085 12.087-5.436 12.088-12.085 12.088zm23.684-31.44a4.326 4.326 0 0 1 -4.335 4.336 4.326 4.326 0 0 1 -4.336-4.337 4.336 4.336 0 1 1 8.671 0zm12.312 4.4c-.275-5.809-1.602-10.954-5.857-15.194-4.238-4.24-9.383-5.566-15.19-5.858-5.987-.34-23.928-.34-29.914 0-5.792.275-10.936 1.602-15.191 5.842-4.255 4.24-5.565 9.385-5.857 15.194-.34 5.988-.34 23.934 0 29.92.276 5.81 1.602 10.955 5.857 15.195s9.383 5.566 15.191 5.858c5.986.34 23.927.34 29.913 0 5.808-.275 10.953-1.602 15.191-5.858 4.24-4.24 5.566-9.385 5.857-15.195.34-5.987.34-23.916 0-29.903zm-7.733 36.328c-1.262 3.172-3.705 5.615-6.892 6.894-4.773 1.893-16.097 1.456-21.371 1.456s-16.615.42-21.371-1.456c-3.171-1.262-5.614-3.706-6.892-6.894-1.893-4.773-1.456-16.1-1.456-21.376 0-5.275-.42-16.618 1.456-21.376 1.262-3.171 3.704-5.615 6.892-6.893 4.772-1.893 16.097-1.456 21.37-1.456 5.275 0 16.616-.421 21.372 1.456 3.17 1.262 5.614 3.706 6.892 6.894 1.893 4.773 1.456 16.1 1.456 21.375 0 5.276.437 16.619-1.456 21.376z" fill="#e54b4b"/></svg>