<svg xmlns="http://www.w3.org/2000/svg" width="73" height="74" fill="none"><path fill="#E54B4B" d="M67.683.575H5.51C2.66.575.345 2.923.345 5.804v62.061c0 2.881 2.315 5.228 5.164 5.228h62.174c2.85 0 5.18-2.347 5.18-5.228V5.804c0-2.881-2.33-5.229-5.18-5.229Zm-45.42 62.159H11.514V28.126H22.28v34.608h-.016Zm-5.375-39.335a6.235 6.235 0 0 1-6.232-6.232 6.235 6.235 0 0 1 6.232-6.232c3.432 0 6.232 2.8 6.232 6.232a6.224 6.224 0 0 1-6.232 6.232Zm45.664 39.335H51.804V45.899c0-4.014-.081-9.178-5.585-9.178-5.6 0-6.458 4.37-6.458 8.887v17.126H29.013V28.126h10.31v4.726h.146c1.441-2.719 4.954-5.584 10.182-5.584 10.878 0 12.901 7.17 12.901 16.495v18.97Z"/></svg>