<svg xmlns="http://www.w3.org/2000/svg" width="52" height="40" fill="none"><path fill="#FFA987" d="M50.817 12.993c.395-.313.982-.02.982.476v20.69a4.857 4.857 0 0 1-4.856 4.855H4.855A4.857 4.857 0 0 1 0 34.158V13.48c0-.506.577-.789.981-.475 2.267 1.76 5.271 3.996 15.59 11.492 2.135 1.558 5.737 4.836 9.328 4.816 3.612.03 7.285-3.318 9.338-4.816 10.32-7.496 13.314-9.742 15.58-11.502ZM25.9 26.066c2.348.04 5.726-2.955 7.426-4.189 13.425-9.742 14.447-10.592 17.543-13.02.587-.456.93-1.164.93-1.912V5.02A4.857 4.857 0 0 0 46.944.165H4.855A4.857 4.857 0 0 0 0 5.021v1.923c0 .748.344 1.446.93 1.912 3.097 2.418 4.118 3.278 17.544 13.02 1.7 1.234 5.078 4.229 7.425 4.189Z"/></svg>